<svg xmlns="http://www.w3.org/2000/svg" xmlns:xlink="http://www.w3.org/1999/xlink" width="122" height="122" viewBox="0 0 122 122"><defs><clipPath id="b"><rect width="122" height="122"/></clipPath></defs><g id="a" clip-path="url(#b)"><rect width="122" height="122" fill="#fff"/><g transform="translate(-339 -186)"><circle cx="61.157" cy="61.157" r="61.157" transform="translate(313.588 247.115) rotate(-45)" fill="#ffc7c7"/><path d="M400.079,194.831a52.285,52.285,0,1,0,52.282,52.284A52.344,52.344,0,0,0,400.079,194.831Zm19.128,85.076h-4.83a15.593,15.593,0,0,0,0-13.261h6.683C420.51,271.075,419.867,275.668,419.207,279.907Zm-38.269,0c-.659-4.185-1.295-8.708-1.861-13.261h6.694a15.592,15.592,0,0,0,0,13.261Zm6.9-6.631a12.234,12.234,0,1,1,12.234,12.234A12.248,12.248,0,0,1,387.84,273.276Zm-12.98-29.794a1.027,1.027,0,0,1,0-2.054H425.3a1.027,1.027,0,0,1,0,2.054Zm2.156-5.6a3.424,3.424,0,0,1,3.447-2.054h39.218a3.771,3.771,0,0,1,3.507,2.055Zm46.32,9.152c-.3,2.961-.95,9-1.836,16.066h-9.384a15.74,15.74,0,0,0-24.084,0h-9.4c-.883-7.06-1.513-13.108-1.807-16.066Zm-40.018,45.85c-.615-2.815-1.233-6.023-1.814-9.425h6.529a15.74,15.74,0,0,0,24.082,0h6.527c-.594,3.62-1.2,6.775-1.792,9.421a48.777,48.777,0,0,1-33.532,0Zm37.521-1.685c.548-2.691,1.1-5.771,1.635-9.219.841-5.251,1.668-11.183,2.33-16.712a1.889,1.889,0,0,0,.04-.323c1.057-8.285,1.806-15.415,2.092-18.228a4.558,4.558,0,0,0,.008-8.516,7.194,7.194,0,0,0-7.25-5.922H380.463a7.016,7.016,0,0,0-7.224,5.914,4.556,4.556,0,0,0-.012,8.527c.279,2.837,1.014,10.033,2.08,18.367.666,5.591,1.5,11.59,2.352,16.9.531,3.259,1.1,6.385,1.679,9.225a48.733,48.733,0,1,1,41.5-.01Z" fill="#2a3c46"/></g></g></svg>