<?xml version="1.0" encoding="utf-8"?>
<!-- Generator: Adobe Illustrator 23.0.1, SVG Export Plug-In . SVG Version: 6.00 Build 0)  -->
<svg version="1.1" id="Layer_1" xmlns="http://www.w3.org/2000/svg" xmlns:xlink="http://www.w3.org/1999/xlink" x="0px" y="0px"
	 viewBox="0 0 2070.4 234" style="enable-background:new 0 0 2070.4 234;" xml:space="preserve">
<style type="text/css">
	.st0{fill:#FFFFFF;}
	.st1{fill:none;stroke:#FFFFFF;stroke-width:24;stroke-linecap:round;stroke-miterlimit:10;}
	.st2{fill:#F4D7D7;}
	.st3{fill:#FFEBD9;}
	.st4{fill:#6F2729;}
	.st5{fill:#ED2424;}
</style>
<title>logo_final</title>
<path class="st0" d="M114.2,147.7c-4.1,0-7.5-3.3-7.5-7.5c0.1-3.1-2.3-5.8-5.4-5.9c-3.1-0.1-5.8,2.3-5.9,5.4c0,0.2,0,0.3,0,0.5
	c0,4.1-3.4,7.5-7.5,7.5s-7.5-3.4-7.5-7.5c-0.3-11.4,8.8-20.8,20.2-21.1c11.4-0.3,20.8,8.8,21.1,20.2c0,0.3,0,0.6,0,0.9
	C121.7,144.3,118.3,147.7,114.2,147.7z"/>
<path class="st1" d="M116.6,125.5"/>
<path class="st1" d="M132.7,109.8"/>
<path class="st1" d="M10.3,66.8"/>
<path class="st1" d="M85.9,16.8"/>
<path class="st1" d="M178.6,61"/>
<path class="st2" d="M100.9,133.5c-4.1,0-7.5-3.3-7.6-7.4c0-3.8,2.8-7.1,6.6-7.5c11.1-1.4,13.4-4.1,13.6-4.4
	c-0.1-0.8-0.4-1.5-0.9-2.2c-2.2-3.6-9.3-4.8-19-3.4l-0.6,0.1c-2.4,0.3-4.7,1-6.9,2c-5,1.9-11.2,4.4-20.3,2.7
	c-7.4-1.3-12.7-5.6-15-12.1c-2.7-7.8-0.1-17.5,3.9-21.9c6.7-7.5,15-10.6,31.6-12c16.1-1.3,41.5,2.3,59.3,13.6c2.4,1.5,5.6,1,7.4-1.2
	l0.2-0.3c1.4-1.5,2-3.5,1.8-5.5c-0.5-2-1.8-3.7-3.6-4.7C131,57,107,51.8,83.3,54.6c-17.5,1.9-26.5,6.2-40.2,15
	c-0.4,0.2-0.7,0.4-1.1,0.7c-8.3,4.8-18.8,3.3-25.3-3.7c-6.9-7-8-17.8-2.7-26l0.1-0.2c0.8-1.2,20-28.6,81.1-30.2h0.2
	c2.2,0,54.8,0.7,84.2,25.1c3.2,2.6,3.6,7.4,1,10.5c-2.6,3.2-7.4,3.6-10.5,1l0,0C145.3,26.2,98,25.1,95.4,25.1
	c-15.2,0.4-37,2.9-54.6,12.4c-9.6,5.2-13.7,10.3-14.3,11.1c-1.4,2.4-1,5.5,1,7.5c1.8,2.1,4.8,2.5,7.1,1.1l0.4-0.3
	c15.1-9.7,26.4-15,46.6-17.3c27-3.1,54.2,2.8,77.5,16.8c10.2,5.7,13.9,18.5,8.3,28.8c-0.7,1.3-1.6,2.6-2.6,3.7l-0.2,0.3
	c-6.6,8-18.1,9.9-26.9,4.4c-14.3-9-36-12.5-50.1-11.3c-15.2,1.3-18.9,3.9-21.7,7c-0.7,1.1-1.8,4.9-0.9,7.3c0.2,0.5,0.6,1.6,3.4,2.1
	c5,0.9,8.2-0.4,12.3-2c3.5-1.5,7.2-2.5,11-2.9c11.5-1.7,26.6-1.2,33.7,10.4c3.5,5.6,4,11.4,1.6,16.4c-3.3,6.9-11.6,11.1-25.2,12.8
	C101.5,133.5,101.2,133.5,100.9,133.5z"/>
<path class="st1" d="M96.1,144.8"/>
<path class="st1" d="M110.2,133.3"/>
<polygon class="st3" points="100.4,147.8 79.6,135.2 79.5,135.1 58.6,122.4 48.1,129.7 98.8,160.4 "/>
<path class="st4" d="M101.3,165.6l-58.8-35.7l16.1-11.2l45.3,27.5L101.3,165.6z M53.8,129.5l42.5,25.8l0.8-5.9l-38.4-23.3
	L53.8,129.5z"/>
<polygon class="st3" points="96.5,159.1 96.4,159 50.5,131.1 43.6,127 39.8,133.2 44.2,135.9 95.1,166.7 95.1,166.8 99.5,169.4 
	103.3,163.2 "/>
<path class="st4" d="M100.5,173.7l-65-39.4l7-11.6l65,39.4L100.5,173.7z M44.1,132.2l54.3,33l0.6-0.9l-54.3-33L44.1,132.2z"/>
<polygon class="st5" points="69.9,151.5 69.7,151.3 44.4,136 13.4,208.7 29,218.1 29.4,218.3 44.8,227.7 94.9,166.6 "/>
<path class="st4" d="M45.5,231.8l-36-21.9L43,131.5l56.6,34.3L45.5,231.8z M17.4,207.4l26.8,16.2l46.1-56.2l-44.3-26.9L17.4,207.4z"
	/>
<polygon class="st3" points="56.6,173.6 56.2,173.3 34.2,160 25,181.6 44.2,193.2 44.4,193.4 63.5,204.9 78.3,186.7 "/>
<path class="st4" d="M64.2,209l-43.1-26.2l11.7-27.4l50.2,30.5L64.2,209z M28.9,180.3l33.9,20.6l10.8-13.3l-37.9-23L28.9,180.3z"/>
<polygon class="st3" points="147.2,126.2 125.4,137 125.3,137.1 103.3,148 103.9,160.7 156.9,134.3 "/>
<path class="st4" d="M101,165.7l-0.9-19.6l47.5-23.7l15,12.5L101,165.7z M106.5,149.9l0.3,5.9l44.5-22.2l-4.5-3.8L106.5,149.9z"/>
<polygon class="st3" points="154.5,135.5 154.5,135.5 106.4,159.5 99.1,163.1 102.4,169.6 107.1,167.3 160.3,140.8 160.3,140.8 
	164.9,138.5 161.6,132 "/>
<path class="st4" d="M101,173.8l-6-12.1l68.1-33.9l6,12.1L101,173.8z M103.3,164.5l0.5,1l56.9-28.4l-0.5-1L103.3,164.5z"/>
<polygon class="st5" points="133.9,154 133.7,154.1 107.2,167.2 152.1,232.2 168.4,224.1 168.8,223.9 185,215.8 160.1,140.9 "/>
<path class="st4" d="M151.1,236.2l-48.5-70.1l59.3-29.5l26.9,80.9L151.1,236.2z M111.8,168.4l41.3,59.8l28-14l-22.9-68.9
	L111.8,168.4z"/>
<polygon class="st3" points="145.5,177 145.1,177.2 122,188.7 135.4,208 155.5,197.9 155.7,197.8 175.7,187.9 168.2,165.7 "/>
<path class="st4" d="M134.4,212l-16.9-24.5l52.6-26.2l9.5,28.2L134.4,212z M126.7,189.9l9.8,14.1l35.4-17.7l-5.5-16.2L126.7,189.9z"
	/>
<path class="st4" d="M392.7,221.4c-7-5.4-12.3-15.1-15.8-29.5c-4.1-20.5-5.9-41.4-5.3-62.4c0-75.6,19.7-113.4,59.2-113.4
	c11.4,0,19,1.5,22.7,4.7c3.7,3.2,5.7,8,5.5,12.9c-0.1,6.9-1.7,13.7-4.7,19.9c-4.4-3.3-9.8-5.1-15.3-5.1c-9.9,0-17.8,5.7-23.7,17.1
	c-5.9,11.4-8.9,31.9-8.9,61.4c-0.2,13.4,0.5,26.7,2.4,40c0.7,7.2,3.2,14.1,7.4,20c3.4,3.8,8.4,5.9,13.5,5.7c8,0.4,16-1.1,23.3-4.4
	c3,6,4.5,12.6,4.4,19.3c0.1,6.8-3.6,13-9.6,16.1c-8.2,4.3-17.3,6.3-26.5,5.8C411.1,229.9,401.1,227.1,392.7,221.4z"/>
<path class="st4" d="M487.6,220.6c-7.5-5.9-13-16.6-16.4-32c-4-22.1-5.8-44.5-5.2-66.9c-0.6-21.1,1.5-42.2,6.1-62.8
	c4.1-15.5,10.2-26.5,18.4-32.9c9.3-6.9,20.8-10.4,32.4-9.8c11.1-0.6,22.1,2.7,31.1,9.3c7.5,6.1,13,16.7,16.5,31.7
	c4,20.9,5.7,42.1,5.2,63.4c0.6,21.9-1.4,43.8-5.9,65.3c-3.9,15.8-9.9,27-17.9,33.7c-9.2,7.1-20.6,10.7-32.2,10.1
	C508.2,230.3,496.9,227.1,487.6,220.6z M532.4,187.9c3.1-7.3,4.9-15.1,5.3-23c1-10.3,1.5-24.8,1.5-43.4c0-19.1-0.3-33.6-1-43.3
	c-0.1-7.4-1.7-14.6-4.7-21.3c-3.1-6.1-10.6-8.5-16.7-5.4c-2.6,1.3-4.6,3.5-5.8,6.2c-3.3,7.8-5.2,16-5.6,24.5
	c-1.1,11.2-1.6,26.8-1.6,46.6c0,16.8,0.4,29.8,1.3,39.1c0.3,7.1,2,14.1,5,20.6c2.1,4.2,6.4,6.8,11.1,6.7
	C526,195.2,530.4,192.4,532.4,187.9z"/>
<path class="st4" d="M672.3,20.7c3.1-1,6.3-1.5,9.6-1.3c5.3-0.2,12.5-0.3,21.6-0.3v201.5c0.1,1.6-0.5,3.1-1.5,4.3
	c-1.2,1.2-2.9,1.8-4.7,1.6H672l-31.4-79.2c-7.4-21.5-13.4-43.5-17.8-65.8c2.4,22.6,3.7,45.4,3.8,68.1v70.9c0.2,1.6-0.3,3.2-1.5,4.3
	c-3.1,1-6.3,1.5-9.6,1.3c-5.5,0.2-12.7,0.3-21.8,0.3V25c-0.4-2.9,1.6-5.5,4.4-5.9c0.5-0.1,1-0.1,1.5,0h26.1L656.9,97
	c7.3,20.6,13.2,41.6,17.6,63c-2.4-21.8-3.7-43.8-3.8-65.7V25C670.4,23.4,671,21.8,672.3,20.7z"/>
<path class="st4" d="M803.6,20.7c3.1-1,6.3-1.5,9.6-1.3c5.4-0.2,12.5-0.3,21.6-0.3v201.5c0.1,1.6-0.5,3.1-1.5,4.3
	c-1.2,1.2-2.9,1.8-4.7,1.6h-25.5l-31.4-79.2c-7.4-21.5-13.4-43.5-17.8-65.8c2.4,22.6,3.7,45.4,3.8,68.1v70.9
	c0.2,1.6-0.3,3.2-1.4,4.3c-3.1,1-6.4,1.5-9.6,1.3c-5.4,0.2-12.7,0.3-21.8,0.3V25c-0.4-2.9,1.6-5.5,4.4-5.9c0.5-0.1,1-0.1,1.5,0H757
	L788.5,97c7.2,20.6,12.9,41.6,17.3,63c-2.4-21.8-3.7-43.8-3.8-65.7V25C801.8,23.4,802.4,21.8,803.6,20.7z"/>
<path class="st4" d="M889.5,197.3h42c0,7.9,0,14-0.3,18.9c0.1,3-0.3,6-1.4,8.8c-1,1.2-2.5,1.8-4,1.6h-69.2V25
	c0.1-1.3,0.5-2.6,1.2-3.7c1-1.6,2.8-2.5,4.7-2.2h71.1c0,7.5,0,13.6-0.3,18.4c0.1,3.1-0.4,6.2-1.5,9c-1,1.3-2.5,2-4.1,1.9h-38.2v50.7
	h36.1c0,7.3,0,13.4-0.3,18.2c0,3.3-0.4,6.5-1.4,9.6c-0.6,1.5-2.1,2.5-3.7,2.4h-30.8L889.5,197.3z"/>
<path class="st4" d="M964.5,221.4c-7-5.4-12.3-15.1-15.8-29.5c-4.1-20.5-5.9-41.4-5.3-62.4c0-75.6,19.7-113.4,59.2-113.4
	c11.5,0,19,1.5,22.7,4.7c3.7,3.2,5.8,8,5.5,12.9c-0.1,6.9-1.6,13.7-4.7,19.9c-4.4-3.3-9.8-5.1-15.4-5c-9.9,0-17.8,5.7-23.7,17.1
	s-8.9,31.9-8.9,61.4c-0.2,13.4,0.5,26.7,2.4,40c0.7,7.2,3.2,14.1,7.4,20c3.4,3.9,8.4,6,13.6,5.7c8,0.4,16-1.1,23.3-4.4
	c3,6,4.6,12.6,4.7,19.3c0.1,6.8-3.6,13-9.6,16.1c-8.1,4.3-17.3,6.3-26.5,5.8C983.1,230.1,973,227.3,964.5,221.4z"/>
<path class="st4" d="M1146.8,19.1V44c0.2,1.7-0.3,3.3-1.3,4.7c-1.4,0.9-3,1.3-4.7,1.2h-31.7v170.7c0.2,1.6-0.4,3.2-1.6,4.3
	c-3.1,1-6.3,1.5-9.6,1.3c-5.4,0.2-12.5,0.3-21.6,0.3V49.9h-36V25c-0.4-2.9,1.6-5.5,4.4-5.9c0.5-0.1,1-0.1,1.5,0L1146.8,19.1z"/>
<path class="st5" d="M1242.6,19.1c0,7.5,0,13.5-0.3,18.1c0.1,2.8-0.4,5.6-1.4,8.3c-1.1,1.1-2.7,1.7-4.3,1.4h-38.2v52.2h36.1
	c0,7.3,0,13.4-0.3,18.2c0.1,3.2-0.4,6.3-1.4,9.3c-0.6,1.4-2.1,2.3-3.7,2.2h-30.8v92.1c0,3.6-1.7,5.4-5,5.4h-28V25
	c0.1-1.3,0.5-2.6,1.2-3.7c1-1.6,2.8-2.5,4.7-2.2L1242.6,19.1z"/>
<path class="st5" d="M1271.9,220.6c-7.5-5.9-13-16.6-16.5-32c-4-22.1-5.8-44.5-5.2-66.9c-0.6-21.1,1.5-42.2,6.1-62.8
	c4-15.5,10.2-26.5,18.4-32.9c9.3-6.8,20.6-10.3,32.2-9.7c11.1-0.6,22.1,2.7,31.1,9.3c7.5,6.1,13,16.7,16.4,31.7
	c4,20.9,5.7,42.1,5.2,63.4c0.6,21.9-1.4,43.8-6,65.3c-3.9,15.8-9.9,27-17.9,33.7c-9.2,7.1-20.6,10.7-32.1,10.1
	C1292.3,230.3,1281.2,227.1,1271.9,220.6z M1316.6,187.9c3.1-7.3,5-15.1,5.4-23c1-10.3,1.4-24.8,1.4-43.4c0-19.1-0.3-33.6-1-43.3
	c-0.1-7.4-1.7-14.6-4.7-21.3c-3.1-6.1-10.6-8.6-16.7-5.5c-2.6,1.3-4.7,3.5-5.8,6.2c-3.4,7.7-5.3,16-5.6,24.5
	c-1.1,11.2-1.6,26.8-1.6,46.6c0,16.8,0.4,29.8,1.4,39.1c0.3,7.1,2,14.1,5,20.6c2.1,4.2,6.4,6.8,11.1,6.7
	C1310.3,195.2,1314.7,192.4,1316.6,187.9z"/>
<path class="st5" d="M1462.5,169.3c5.5,16.3,8.3,33.4,8.4,50.6c0.1,1.6-0.2,3.2-1,4.7c-1.2,1.3-2.9,2-4.7,2.1
	c-3.8,0.5-7.7,0.7-11.6,0.6c-5.3,0-11.7-0.3-19.3-0.9c0.1-16.9-2-33.8-6.2-50.2c-2.7-10.6-7.1-20.8-13.1-30.1
	c-1.8,0.2-3.5,0.3-5.3,0.3h-2.4v74.2c0.2,1.6-0.4,3.2-1.6,4.3c-3.1,1-6.4,1.5-9.6,1.3c-5.3,0.2-12.5,0.3-21.6,0.3V25
	c0.1-1.3,0.5-2.6,1.2-3.7c1-1.6,2.8-2.5,4.7-2.2h28c11-0.4,22,1.4,32.3,5.4c8.4,3.6,15.2,10.3,19,18.6c4.9,11.7,7.1,24.3,6.5,37
	c0,26.2-6.9,44.8-20.7,55.7C1452.7,146.1,1458.4,157.4,1462.5,169.3z M1407.6,116h6.2c5.2,0,9.8-3.2,11.6-8
	c2.6-5.3,3.9-15.2,3.9-29.6c0.4-7.9-0.7-15.8-3.1-23.3c-1.4-4.4-5.5-7.4-10.2-7.4h-8.3V116z"/>
<path class="st4" d="M1508,221.4c-7-5.4-12.3-15.1-15.8-29.5c-4.1-20.5-5.9-41.4-5.3-62.4c0-75.6,19.7-113.4,59.2-113.4
	c11.5,0,19,1.5,22.7,4.7c3.7,3.2,5.8,8,5.5,12.9c-0.1,6.9-1.6,13.7-4.7,19.9c-4.4-3.3-9.8-5.1-15.4-5c-9.9,0-17.8,5.7-23.7,17.1
	s-8.9,31.9-8.9,61.4c-0.2,13.4,0.5,26.7,2.4,40c0.7,7.2,3.2,14.1,7.4,20c3.4,3.9,8.4,6,13.6,5.7c8,0.4,16-1.1,23.3-4.4
	c3,6,4.6,12.6,4.7,19.3c0.1,6.8-3.6,13-9.6,16.1c-8.1,4.3-17.3,6.3-26.5,5.8C1526.5,230.1,1516.4,227.3,1508,221.4z"/>
<path class="st4" d="M1606.4,220.6c-7.5-5.9-13-16.6-16.5-32c-4-22.1-5.8-44.5-5.2-66.9c-0.6-21.1,1.5-42.2,6.1-62.8
	c4-15.4,10.2-26.4,18.4-32.9c9.3-6.8,20.6-10.3,32.1-9.7c11.1-0.6,22.1,2.7,31.1,9.3c7.5,6.1,13,16.7,16.5,31.7
	c4,20.9,5.7,42.1,5.2,63.4c0.6,21.9-1.4,43.8-5.9,65.3c-4,15.8-10,27-17.9,33.7c-9.2,7.1-20.6,10.7-32.1,10.1
	C1626.8,230.3,1615.6,227.1,1606.4,220.6z M1651.1,187.9c3.1-7.3,4.9-15.1,5.3-23c1-10.3,1.5-24.8,1.5-43.4
	c0-19.1-0.4-33.6-1.1-43.3c-0.1-7.4-1.7-14.6-4.7-21.3c-3.1-6.1-10.6-8.5-16.7-5.4c-2.6,1.3-4.6,3.5-5.8,6.2
	c-3.3,7.8-5.3,16-5.6,24.5c-1.1,11.2-1.6,26.8-1.6,46.6c0,16.8,0.5,29.8,1.4,39.1c0.3,7.1,2,14.1,5,20.6c2.1,4.2,6.4,6.8,11.1,6.7
	C1644.7,195.2,1649.2,192.4,1651.1,187.9L1651.1,187.9z"/>
<path class="st4" d="M1789.7,19.1c0,7.5,0,13.5-0.3,18.1c0.1,2.8-0.3,5.6-1.3,8.3c-1.1,1.1-2.7,1.7-4.3,1.4h-38.2v52.2h36.1
	c0,7.3,0,13.4-0.3,18.2c0,3.2-0.4,6.3-1.4,9.3c-0.6,1.4-2.1,2.3-3.7,2.2h-30.8v92.1c0,3.6-1.7,5.4-5,5.4h-28V25
	c0.1-1.3,0.5-2.6,1.2-3.7c1-1.6,2.8-2.5,4.7-2.2L1789.7,19.1z"/>
<path class="st4" d="M1877.3,19.1c0,7.5,0,13.5-0.3,18.1c0.1,2.8-0.3,5.7-1.4,8.3c-1.1,1.1-2.7,1.7-4.3,1.4h-38.2v52.2h36.1
	c0,7.3,0,13.4-0.3,18.2c0.1,3.2-0.4,6.3-1.3,9.3c-0.6,1.5-2.1,2.3-3.7,2.2h-30.8v92.1c0,3.6-1.7,5.4-5,5.4h-28V25
	c0.1-1.3,0.5-2.6,1.2-3.7c1-1.6,2.8-2.5,4.7-2.2L1877.3,19.1z"/>
<path class="st4" d="M1927.8,197.3h42c0,7.9,0,14-0.3,18.9c0.1,3-0.3,6-1.4,8.8c-1,1.2-2.5,1.8-4,1.6h-69.2V25
	c0.1-1.3,0.5-2.6,1.2-3.7c1-1.6,2.8-2.5,4.7-2.2h71c0,7.5,0,13.6-0.3,18.4c0.1,3.1-0.4,6.2-1.5,9c-1,1.3-2.5,2-4.1,1.9h-38.2v50.7
	h36.1c0,7.3,0,13.4-0.3,18.2c0,3.3-0.4,6.5-1.4,9.6c-0.6,1.5-2.1,2.5-3.7,2.4h-30.8L1927.8,197.3z"/>
<path class="st4" d="M2017,197.3h42c0,7.9,0,14-0.3,18.9c0.1,3-0.3,5.9-1.3,8.8c-1,1.2-2.5,1.8-4,1.6h-69.2V25
	c0.1-1.3,0.5-2.6,1.2-3.7c1-1.6,2.8-2.5,4.7-2.2h71.2c0,7.5,0,13.6-0.3,18.4c0.1,3.1-0.4,6.2-1.5,9c-1,1.3-2.5,2-4.1,1.9H2017v50.7
	h36.2c0,7.3,0,13.4-0.3,18.2c0,3.3-0.4,6.5-1.3,9.6c-0.6,1.5-2.1,2.5-3.7,2.4H2017V197.3z"/>
<path class="st5" d="M286.1,229.2c-3.1-0.1-6.2-0.3-9.3-0.7c-3.8-0.5-6.6-3.9-6.1-7.8c0,0,0-0.1,0-0.1l6.5-42.7l-24.7-0.4l-6.1,40.2
	c-0.3,5.3-4.1,9.8-9.3,10.9c-1.1,0.1-2.3,0.1-3.4,0c-3.1,0-6.2-0.3-9.3-0.7c-1.9-0.2-3.6-1.2-4.7-2.7c-1.2-1.5-1.6-3.4-1.4-5.3
	l6.2-42.8h-14c-2,0-3.9-0.9-5.2-2.4c-1.3-1.5-1.9-3.5-1.7-5.5c0.5-5.8,1.4-11.6,2.6-17.3c0.9-4.9,5.1-8.4,10.1-8.5h0.9h12.2
	l8.1-53.8l-16.8-0.2c-2,0-3.9-0.9-5.2-2.4c-1.3-1.5-1.9-3.4-1.7-5.4c0.5-5.8,1.4-11.6,2.6-17.3c0.9-4.9,5.1-8.5,10.1-8.5h0.8
	l15.2,0.2l4.7-30.8c1.8-9.7,7.9-11,10.4-11.2h1.4c3.6,0.1,7.1,0.4,10.6,0.8c1.9,0.2,3.6,1.2,4.7,2.7c1.2,1.5,1.6,3.4,1.4,5.3
	l-5.1,33.6l24.7,0.3l4.7-31c1.7-9.6,7.7-11,10.2-11.2h1.5c3.5,0.1,6.9,0.4,10.4,0.8c1.9,0.2,3.5,1.2,4.7,2.7
	c1.1,1.5,1.6,3.4,1.4,5.3l-5.1,33.9h15.5c2,0,3.8,0.9,5.1,2.4c1.3,1.5,1.9,3.4,1.7,5.4c-1,8.4-1.8,14-2.3,16.7
	c-0.7,5.2-5.1,9.1-10.3,9.1h-0.9h-14l-8.2,53.9l18.6,0.2c2,0,3.9,0.9,5.2,2.4c1.3,1.5,1.9,3.5,1.7,5.5c-1,8.4-1.8,14-2.3,16.7
	c-0.6,5.2-5,9.2-10.2,9.2h-0.9l-16.8-0.2l-5.9,39.6c-1.6,8.3-6.5,10.4-9.3,10.9C288.6,229.1,287.3,229.2,286.1,229.2z M282.2,144.1
	l8.2-54.1h-24.7l-8.2,53.9L282.2,144.1z"/>
<path class="st5" d="M259.2,20.9c3.3,0.1,6.5,0.4,9.8,0.8l-6.3,41.5h-14l5.5-36.8c0.7-3.4,2-5.2,4-5.3h1 M312,21.5
	c2.1,0,5.2,0.3,9.6,0.7l-6.3,42h-13.8l5.6-37.3c0.6-3.4,1.9-5.2,3.8-5.3h1.1 M226.6,62.7h0.5l21.6,0.3l-3,19.6l-24.8-0.3
	c0.5-5.5,1.3-11,2.4-16.4C223.8,63.8,224.9,62.7,226.6,62.7 M262.7,63.2l38.8,0.5l-3,19.7l-38.8-0.6L262.7,63.2 M315.2,63.9
	l23.5,0.3c-1,8.3-1.7,13.7-2.2,16.2c-0.5,2.3-1.6,3.4-3.5,3.4h-0.6l-20.2-0.2L315.2,63.9 M245.7,82.6h14l-10.2,68.1h-14l10.3-67.8
	 M298.6,83.6h13.8L302,151.4h-13.7L298.6,83.6 M216.3,150.2h0.5h18.6l-2.9,19.7h-22c1-8.6,1.8-14,2.4-16.4S214.6,150.2,216.3,150.2
	 M249.4,150.7l38.8,0.6l-3.1,19.6l-38.8-0.5l3-19.7 M301.8,151.4l26.5,0.4c-1,8.3-1.7,13.7-2.2,16.2c-0.5,2.5-1.6,3.5-3.5,3.5h-0.2
	l-23.3-0.3l3-19.7 M232.6,170h14l-7,46.2c-0.6,3.1-1.9,4.8-3.8,5c-0.8,0.1-1.6,0.1-2.3,0c-3,0.1-6,0-8.9-0.2l7.9-50.9 M285.2,170.8
	h13.7l-6.9,45.9c-0.6,3.1-1.8,4.7-3.6,5.1c-0.8,0.1-1.6,0.1-2.3,0c-2.9-0.1-5.7-0.3-8.5-0.7l7.6-50.3 M259,6.9h-1.8
	c-8.9,0.8-16,7.8-16.9,16.7c0,0,0,0.3,0,0.4l-3.8,24.7h-8.9h-1.1c-8.2,0-15.2,5.7-16.9,13.7c-1.3,6-2.2,12.1-2.8,18.2
	c-0.9,7.7,4.6,14.6,12.3,15.5c0.5,0.1,1,0.1,1.4,0.1h8.8l-6.1,39.9h-5.9h-1.2c-8.2,0.1-15.3,5.9-16.9,14c-1.3,6-2.3,12.1-2.8,18.3
	c-0.7,7.7,4.9,14.5,12.6,15.3c0.4,0,0.9,0.1,1.3,0.1h5.8l-5.3,35.1c-1.2,7.6,4.1,14.8,11.7,15.9c0.2,0,0.3,0,0.5,0.1
	c3.4,0.4,6.9,0.7,10.3,0.7c1.6,0,3.1-0.1,4.7-0.3c8.2-1.4,14.4-8,15.3-16.3c0-0.2,0-0.3,0-0.5l5.2-34.2h10.6l-5.3,34.8
	c-1.3,7.6,3.8,14.8,11.4,16.2c0.1,0,0.2,0,0.4,0.1c3.4,0.4,6.8,0.7,10.2,0.7c1.6,0,3.1-0.1,4.7-0.4c8-1.6,14.1-8.1,15-16.2
	c0,0,0-0.3,0-0.5l5.1-33.8h10.5h1.3c8.5-0.1,15.8-6.3,17.2-14.7c0.6-3,1.4-8.7,2.4-17.3c0.5-3.9-0.8-7.9-3.4-10.9
	c-2.6-2.9-6.4-4.6-10.3-4.7h-10.5l6.1-39.9h7.6h1.3c8.7,0.2,16.1-6,17.6-14.5c0.6-3,1.4-8.7,2.4-17.4c0.9-7.7-4.6-14.6-12.3-15.5
	c-0.5-0.1-1-0.1-1.4-0.1h-7.5l3.9-26c1.1-7.6-4.1-14.8-11.8-15.9c-0.1,0-0.3,0-0.4-0.1c-3.7-0.5-7.5-0.8-11.2-0.9h-2
	c-8.8,0.9-15.8,7.9-16.6,16.8c0,0,0,0.3,0,0.4l-3.8,25h-10.6l3.9-25.6c1.2-7.6-4.1-14.8-11.7-15.9c-0.2,0-0.3,0-0.5-0.1
	c-3.8-0.5-7.6-0.8-11.4-0.9L259,6.9z M265.5,136.9l6.1-39.9h10.5l-6,39.9C276.1,136.9,265.5,136.9,265.5,136.9z"/>
</svg>
