<?xml version="1.0" encoding="utf-8"?>
<!-- Generator: Adobe Illustrator 23.0.1, SVG Export Plug-In . SVG Version: 6.00 Build 0)  -->
<svg version="1.1" id="Layer_1" xmlns="http://www.w3.org/2000/svg" xmlns:xlink="http://www.w3.org/1999/xlink" x="0px" y="0px"
	 viewBox="0 0 1883.8 234" style="enable-background:new 0 0 1883.8 234;" xml:space="preserve">
<style type="text/css">
	.st0{fill:#6F2729;}
	.st1{fill:#ED2424;}
</style>
<title>logo_final</title>
<path class="st0" d="M202.5,217.3c-7-5.4-12.3-15.1-15.8-29.5c-4.1-20.5-5.9-41.4-5.3-62.4c0-75.6,19.7-113.4,59.2-113.4
	c11.4,0,19,1.5,22.7,4.7c3.7,3.2,5.7,8,5.5,12.9c-0.1,6.9-1.7,13.7-4.7,19.9c-4.4-3.3-9.8-5.1-15.3-5.1c-9.9,0-17.8,5.7-23.7,17.1
	c-5.9,11.4-8.9,31.9-8.9,61.4c-0.2,13.4,0.5,26.7,2.4,40c0.7,7.2,3.2,14.1,7.4,20c3.4,3.8,8.4,5.9,13.5,5.7c8,0.4,16-1.1,23.3-4.4
	c3,6,4.5,12.6,4.4,19.3c0.1,6.8-3.6,13-9.6,16.1c-8.2,4.3-17.3,6.3-26.5,5.8C220.9,225.8,210.9,223,202.5,217.3z"/>
<path class="st0" d="M297.4,216.5c-7.5-5.9-13-16.6-16.4-32c-4-22.1-5.8-44.5-5.2-66.9c-0.6-21.1,1.5-42.2,6.1-62.8
	c4.1-15.5,10.2-26.5,18.4-32.9c9.3-6.9,20.8-10.4,32.4-9.8c11.1-0.6,22.1,2.7,31.1,9.3c7.5,6.1,13,16.7,16.5,31.7
	c4,20.9,5.7,42.1,5.2,63.4c0.6,21.9-1.4,43.8-5.9,65.3c-3.9,15.8-9.9,27-17.9,33.7c-9.2,7.1-20.6,10.7-32.2,10.1
	C318,226.2,306.7,223,297.4,216.5z M342.2,183.8c3.1-7.3,4.9-15.1,5.3-23c1-10.3,1.5-24.8,1.5-43.4c0-19.1-0.3-33.6-1-43.3
	c-0.1-7.4-1.7-14.6-4.7-21.3c-3.1-6.1-10.6-8.5-16.7-5.4c-2.6,1.3-4.6,3.5-5.8,6.2c-3.3,7.8-5.2,16-5.6,24.5
	c-1.1,11.2-1.6,26.8-1.6,46.6c0,16.8,0.4,29.8,1.3,39.1c0.3,7.1,2,14.1,5,20.6c2.1,4.2,6.4,6.8,11.1,6.7
	C335.8,191.1,340.2,188.3,342.2,183.8z"/>
<path class="st0" d="M482,16.6c3.1-1,6.3-1.5,9.6-1.3c5.3-0.2,12.5-0.3,21.6-0.3v201.5c0.1,1.6-0.5,3.1-1.5,4.3
	c-1.2,1.2-2.9,1.8-4.7,1.6h-25.4l-31.4-79.2c-7.4-21.5-13.4-43.5-17.8-65.8c2.4,22.6,3.7,45.4,3.8,68.1v70.9
	c0.2,1.6-0.3,3.2-1.5,4.3c-3.1,1-6.3,1.5-9.6,1.3c-5.5,0.2-12.7,0.3-21.8,0.3V20.9c-0.4-2.9,1.6-5.5,4.4-5.9c0.5-0.1,1-0.1,1.5,0
	h26.1l31.1,77.9c7.3,20.6,13.2,41.6,17.6,63c-2.4-21.8-3.7-43.8-3.8-65.7V20.9C480.2,19.3,480.8,17.7,482,16.6z"/>
<path class="st0" d="M613.4,16.6c3.1-1,6.3-1.5,9.6-1.3c5.4-0.2,12.5-0.3,21.6-0.3v201.5c0.1,1.6-0.5,3.1-1.5,4.3
	c-1.2,1.2-2.9,1.8-4.7,1.6H613l-31.4-79.2c-7.4-21.5-13.4-43.5-17.8-65.8c2.4,22.6,3.7,45.4,3.8,68.1v70.9c0.2,1.6-0.3,3.2-1.4,4.3
	c-3.1,1-6.4,1.5-9.6,1.3c-5.4,0.2-12.7,0.3-21.8,0.3V20.9c-0.4-2.9,1.6-5.5,4.4-5.9c0.5-0.1,1-0.1,1.5,0h26.1l31.5,77.9
	c7.2,20.6,12.9,41.6,17.3,63c-2.4-21.8-3.7-43.8-3.8-65.7V20.9C611.5,19.3,612.1,17.7,613.4,16.6z"/>
<path class="st0" d="M699.3,193.2h42c0,7.9,0,14-0.3,18.9c0.1,3-0.3,6-1.4,8.8c-1,1.2-2.5,1.8-4,1.6h-69.2V20.9
	c0.1-1.3,0.5-2.6,1.2-3.7c1-1.6,2.8-2.5,4.7-2.2h71.1c0,7.5,0,13.6-0.3,18.4c0.1,3.1-0.4,6.2-1.5,9c-1,1.3-2.5,2-4.1,1.9h-38.2V95
	h36.1c0,7.3,0,13.4-0.3,18.2c0,3.3-0.4,6.5-1.4,9.6c-0.6,1.5-2.1,2.5-3.7,2.4h-30.8L699.3,193.2z"/>
<path class="st0" d="M774.3,217.3c-7-5.4-12.3-15.1-15.8-29.5c-4.1-20.5-5.9-41.4-5.3-62.4c0-75.6,19.7-113.4,59.2-113.4
	c11.5,0,19,1.5,22.7,4.7c3.7,3.2,5.8,8,5.5,12.9c-0.1,6.9-1.6,13.7-4.7,19.9c-4.4-3.3-9.8-5.1-15.4-5c-9.9,0-17.8,5.7-23.7,17.1
	s-8.9,31.9-8.9,61.4c-0.2,13.4,0.5,26.7,2.4,40c0.7,7.2,3.2,14.1,7.4,20c3.4,3.9,8.4,6,13.6,5.7c8,0.4,16-1.1,23.3-4.4
	c3,6,4.6,12.6,4.7,19.3c0.1,6.8-3.6,13-9.6,16.1c-8.1,4.3-17.3,6.3-26.5,5.8C792.9,226,782.7,223.2,774.3,217.3z"/>
<path class="st0" d="M956.5,15v24.9c0.2,1.7-0.3,3.3-1.3,4.7c-1.4,0.9-3,1.3-4.7,1.2h-31.7v170.7c0.2,1.6-0.4,3.2-1.6,4.3
	c-3.1,1-6.3,1.5-9.6,1.3c-5.4,0.2-12.5,0.3-21.6,0.3V45.8h-36V20.9c-0.4-2.9,1.6-5.5,4.4-5.9c0.5-0.1,1-0.1,1.5,0L956.5,15z"/>
<path class="st1" d="M1052.4,15c0,7.5,0,13.5-0.3,18.1c0.1,2.8-0.4,5.6-1.4,8.3c-1.1,1.1-2.7,1.7-4.3,1.4h-38.2V95h36.1
	c0,7.3,0,13.4-0.3,18.2c0.1,3.2-0.4,6.3-1.4,9.3c-0.6,1.4-2.1,2.3-3.7,2.2h-30.8v92.1c0,3.6-1.7,5.4-5,5.4h-28V20.9
	c0.1-1.3,0.5-2.6,1.2-3.7c1-1.6,2.8-2.5,4.7-2.2L1052.4,15z"/>
<path class="st1" d="M1081.7,216.5c-7.5-5.9-13-16.6-16.5-32c-4-22.1-5.8-44.5-5.2-66.9c-0.6-21.1,1.5-42.2,6.1-62.8
	c4-15.5,10.2-26.5,18.4-32.9c9.3-6.8,20.6-10.3,32.2-9.7c11.1-0.6,22.1,2.7,31.1,9.3c7.5,6.1,13,16.7,16.4,31.7
	c4,20.9,5.7,42.1,5.2,63.4c0.6,21.9-1.4,43.8-6,65.3c-3.9,15.8-9.9,27-17.9,33.7c-9.2,7.1-20.6,10.7-32.1,10.1
	C1102.1,226.2,1090.9,223,1081.7,216.5z M1126.4,183.8c3.1-7.3,5-15.1,5.4-23c1-10.3,1.4-24.8,1.4-43.4c0-19.1-0.3-33.6-1-43.3
	c-0.1-7.4-1.7-14.6-4.7-21.3c-3.1-6.1-10.6-8.6-16.7-5.5c-2.6,1.3-4.7,3.5-5.8,6.2c-3.4,7.7-5.3,16-5.6,24.5
	c-1.1,11.2-1.6,26.8-1.6,46.6c0,16.8,0.4,29.8,1.4,39.1c0.3,7.1,2,14.1,5,20.6c2.1,4.2,6.4,6.8,11.1,6.7
	C1120.1,191.1,1124.5,188.3,1126.4,183.8z"/>
<path class="st1" d="M1272.2,165.2c5.5,16.3,8.3,33.4,8.4,50.6c0.1,1.6-0.2,3.2-1,4.7c-1.2,1.3-2.9,2-4.7,2.1
	c-3.8,0.5-7.7,0.7-11.6,0.6c-5.3,0-11.7-0.3-19.3-0.9c0.1-16.9-2-33.8-6.2-50.2c-2.7-10.6-7.1-20.8-13.1-30.1
	c-1.8,0.2-3.5,0.3-5.3,0.3h-2.4v74.2c0.2,1.6-0.4,3.2-1.6,4.3c-3.1,1-6.4,1.5-9.6,1.3c-5.3,0.2-12.5,0.3-21.6,0.3V20.9
	c0.1-1.3,0.5-2.6,1.2-3.7c1-1.6,2.8-2.5,4.7-2.2h28c11-0.4,22,1.4,32.3,5.4c8.4,3.6,15.2,10.3,19,18.6c4.9,11.7,7.1,24.3,6.5,37
	c0,26.2-6.9,44.8-20.7,55.7C1262.5,142,1268.2,153.3,1272.2,165.2z M1217.3,111.9h6.2c5.2,0,9.8-3.2,11.6-8
	c2.6-5.3,3.9-15.2,3.9-29.6c0.4-7.9-0.7-15.8-3.1-23.3c-1.4-4.4-5.5-7.4-10.2-7.4h-8.3V111.9z"/>
<path class="st0" d="M1317.7,217.3c-7-5.4-12.3-15.1-15.8-29.5c-4.1-20.5-5.9-41.4-5.3-62.4c0-75.6,19.7-113.4,59.2-113.4
	c11.5,0,19,1.5,22.7,4.7c3.7,3.2,5.8,8,5.5,12.9c-0.1,6.9-1.6,13.7-4.7,19.9c-4.4-3.3-9.8-5.1-15.4-5c-9.9,0-17.8,5.7-23.7,17.1
	s-8.9,31.9-8.9,61.4c-0.2,13.4,0.5,26.7,2.4,40c0.7,7.2,3.2,14.1,7.4,20c3.4,3.9,8.4,6,13.6,5.7c8,0.4,16-1.1,23.3-4.4
	c3,6,4.6,12.6,4.7,19.3c0.1,6.8-3.6,13-9.6,16.1c-8.1,4.3-17.3,6.3-26.5,5.8C1336.3,226,1326.2,223.2,1317.7,217.3z"/>
<path class="st0" d="M1416.1,216.5c-7.5-5.9-13-16.6-16.5-32c-4-22.1-5.8-44.5-5.2-66.9c-0.6-21.1,1.5-42.2,6.1-62.8
	c4-15.4,10.2-26.4,18.4-32.9c9.3-6.8,20.6-10.3,32.1-9.7c11.1-0.6,22.1,2.7,31.1,9.3c7.5,6.1,13,16.7,16.5,31.7
	c4,20.9,5.7,42.1,5.2,63.4c0.6,21.9-1.4,43.8-5.9,65.3c-4,15.8-10,27-17.9,33.7c-9.2,7.1-20.6,10.7-32.1,10.1
	C1436.6,226.2,1425.4,223,1416.1,216.5z M1460.9,183.8c3.1-7.3,4.9-15.1,5.3-23c1-10.3,1.5-24.8,1.5-43.4c0-19.1-0.4-33.6-1.1-43.3
	c-0.1-7.4-1.7-14.6-4.7-21.3c-3.1-6.1-10.6-8.5-16.7-5.4c-2.6,1.3-4.6,3.5-5.8,6.2c-3.3,7.8-5.3,16-5.6,24.5
	c-1.1,11.2-1.6,26.8-1.6,46.6c0,16.8,0.5,29.8,1.4,39.1c0.3,7.1,2,14.1,5,20.6c2.1,4.2,6.4,6.8,11.1,6.7
	C1454.5,191.1,1458.9,188.3,1460.9,183.8L1460.9,183.8z"/>
<path class="st0" d="M1599.4,15c0,7.5,0,13.5-0.3,18.1c0.1,2.8-0.3,5.6-1.3,8.3c-1.1,1.1-2.7,1.7-4.3,1.4h-38.2V95h36.1
	c0,7.3,0,13.4-0.3,18.2c0,3.2-0.4,6.3-1.4,9.3c-0.6,1.4-2.1,2.3-3.7,2.2h-30.8v92.1c0,3.6-1.7,5.4-5,5.4h-28V20.9
	c0.1-1.3,0.5-2.6,1.2-3.7c1-1.6,2.8-2.5,4.7-2.2L1599.4,15z"/>
<path class="st0" d="M1687.1,15c0,7.5,0,13.5-0.3,18.1c0.1,2.8-0.3,5.7-1.4,8.3c-1.1,1.1-2.7,1.7-4.3,1.4H1643V95h36.1
	c0,7.3,0,13.4-0.3,18.2c0.1,3.2-0.4,6.3-1.3,9.3c-0.6,1.5-2.1,2.3-3.7,2.2H1643v92.1c0,3.6-1.7,5.4-5,5.4h-28V20.9
	c0.1-1.3,0.5-2.6,1.2-3.7c1-1.6,2.8-2.5,4.7-2.2L1687.1,15z"/>
<path class="st0" d="M1737.6,193.2h42c0,7.9,0,14-0.3,18.9c0.1,3-0.3,6-1.4,8.8c-1,1.2-2.5,1.8-4,1.6h-69.2V20.9
	c0.1-1.3,0.5-2.6,1.2-3.7c1-1.6,2.8-2.5,4.7-2.2h71c0,7.5,0,13.6-0.3,18.4c0.1,3.1-0.4,6.2-1.5,9c-1,1.3-2.5,2-4.1,1.9h-38.2V95
	h36.1c0,7.3,0,13.4-0.3,18.2c0,3.3-0.4,6.5-1.4,9.6c-0.6,1.5-2.1,2.5-3.7,2.4h-30.8L1737.6,193.2z"/>
<path class="st0" d="M1826.7,193.2h42c0,7.9,0,14-0.3,18.9c0.1,3-0.3,5.9-1.3,8.8c-1,1.2-2.5,1.8-4,1.6h-69.2V20.9
	c0.1-1.3,0.5-2.6,1.2-3.7c1-1.6,2.8-2.5,4.7-2.2h71.2c0,7.5,0,13.6-0.3,18.4c0.1,3.1-0.4,6.2-1.5,9c-1,1.3-2.5,2-4.1,1.9h-38.2V95
	h36.2c0,7.3,0,13.4-0.3,18.2c0,3.3-0.4,6.5-1.3,9.6c-0.6,1.5-2.1,2.5-3.7,2.4h-30.8V193.2z"/>
<path class="st1" d="M95.8,225c-3.1-0.1-6.2-0.3-9.3-0.7c-3.8-0.5-6.6-3.9-6.1-7.8c0,0,0-0.1,0-0.1l6.5-42.7l-24.7-0.4l-6.1,40.2
	c-0.3,5.3-4.1,9.8-9.3,10.9c-1.1,0.1-2.3,0.1-3.4,0c-3.1,0-6.2-0.3-9.3-0.7c-1.9-0.2-3.6-1.2-4.7-2.7c-1.2-1.5-1.6-3.4-1.4-5.3
	l6.2-42.8h-14c-2,0-3.9-0.9-5.2-2.4c-1.3-1.5-1.9-3.5-1.7-5.5c0.5-5.8,1.4-11.6,2.6-17.3c0.9-4.9,5.1-8.4,10.1-8.5H27h12.2l8.1-53.8
	l-16.8-0.2c-2,0-3.9-0.9-5.2-2.4c-1.3-1.5-1.9-3.4-1.7-5.4c0.5-5.8,1.4-11.6,2.6-17.3c0.9-4.9,5.1-8.5,10.1-8.5h0.8l15.2,0.2
	l4.7-30.8c1.8-9.7,7.9-11,10.4-11.2H69c3.6,0.1,7.1,0.4,10.6,0.8c1.9,0.2,3.6,1.2,4.7,2.7c1.2,1.5,1.6,3.4,1.4,5.3l-5.1,33.6
	l24.7,0.3l4.7-31c1.7-9.6,7.7-11,10.2-11.2h1.5c3.5,0.1,6.9,0.4,10.4,0.8c1.9,0.2,3.5,1.2,4.7,2.7c1.1,1.5,1.6,3.4,1.4,5.3L132.9,53
	h15.5c2,0,3.8,0.9,5.1,2.4c1.3,1.5,1.9,3.4,1.7,5.4c-1,8.4-1.8,14-2.3,16.7c-0.7,5.2-5.1,9.1-10.3,9.1h-0.9h-14l-8.2,53.9l18.6,0.2
	c2,0,3.9,0.9,5.2,2.4c1.3,1.5,1.9,3.5,1.7,5.5c-1,8.4-1.8,14-2.3,16.7c-0.6,5.2-5,9.2-10.2,9.2h-0.9l-16.8-0.2l-5.9,39.6
	c-1.6,8.3-6.5,10.4-9.3,10.9C98.3,225,97.1,225.1,95.8,225z M92,140l8.2-54.1H75.5l-8.2,53.9L92,140z"/>
<path class="st1" d="M69,16.8c3.3,0.1,6.5,0.4,9.8,0.8l-6.3,41.5h-14L64,22.3c0.7-3.4,2-5.2,4-5.3h1 M121.8,17.4
	c2.1,0,5.2,0.3,9.6,0.7l-6.3,42h-13.8l5.6-37.3c0.6-3.4,1.9-5.2,3.8-5.3h1.1 M36.4,58.6h0.5l21.6,0.3l-3,19.6l-24.8-0.3
	c0.5-5.5,1.3-11,2.4-16.4C33.6,59.7,34.7,58.6,36.4,58.6 M72.4,59.1l38.8,0.5l-3,19.7l-38.8-0.6L72.4,59.1 M125,59.8l23.5,0.3
	c-1,8.3-1.7,13.7-2.2,16.2c-0.5,2.3-1.6,3.4-3.5,3.4h-0.6L122,79.5L125,59.8 M55.4,78.5h14l-10.2,68.1h-14l10.3-67.8 M108.3,79.5
	h13.8l-10.3,67.8H98.1L108.3,79.5 M26.1,146.1h0.5h18.6l-2.9,19.7h-22c1-8.6,1.8-14,2.4-16.4C23.3,146.9,24.4,146.1,26.1,146.1
	 M59.2,146.6l38.8,0.6l-3.1,19.6l-38.8-0.5l3-19.7 M111.6,147.2l26.5,0.4c-1,8.3-1.7,13.7-2.2,16.2c-0.5,2.5-1.6,3.5-3.5,3.5h-0.2
	l-23.3-0.3l3-19.7 M42.3,165.9h14l-7,46.2c-0.6,3.1-1.9,4.8-3.8,5c-0.8,0.1-1.6,0.1-2.3,0c-3,0.1-6,0-8.9-0.2l7.9-50.9 M95,166.7
	h13.7l-6.9,45.9c-0.6,3.1-1.8,4.7-3.6,5.1c-0.8,0.1-1.6,0.1-2.3,0c-2.9-0.1-5.7-0.3-8.5-0.7l7.6-50.3 M68.8,2.8H67
	c-8.9,0.8-16,7.8-16.9,16.7c0,0,0,0.3,0,0.4l-3.8,24.7h-8.9h-1.1c-8.2,0-15.2,5.7-16.9,13.7c-1.3,6-2.2,12.1-2.8,18.2
	c-0.9,7.7,4.6,14.6,12.3,15.5c0.5,0.1,1,0.1,1.4,0.1h8.8l-6.1,39.9h-5.9h-1.2c-8.2,0.1-15.3,5.9-16.9,14c-1.3,6-2.3,12.1-2.8,18.3
	c-0.7,7.7,4.9,14.5,12.6,15.3c0.4,0,0.9,0.1,1.3,0.1h5.8l-5.3,35.1c-1.2,7.6,4.1,14.8,11.7,15.9c0.2,0,0.3,0,0.5,0.1
	c3.4,0.4,6.9,0.7,10.3,0.7c1.6,0,3.1-0.1,4.7-0.3c8.2-1.4,14.4-8,15.3-16.3c0-0.2,0-0.3,0-0.5l5.2-34.2h10.6l-5.3,34.8
	c-1.3,7.6,3.8,14.8,11.4,16.2c0.1,0,0.2,0,0.4,0.1c3.4,0.4,6.8,0.7,10.2,0.7c1.6,0,3.1-0.1,4.7-0.4c8-1.6,14.1-8.1,15-16.2
	c0,0,0-0.3,0-0.5l5.1-33.8h10.5h1.3c8.5-0.1,15.8-6.3,17.2-14.7c0.6-3,1.4-8.7,2.4-17.3c0.5-3.9-0.8-7.9-3.4-10.9
	c-2.6-2.9-6.4-4.6-10.3-4.7h-10.5l6.1-39.9h7.6h1.3c8.7,0.2,16.1-6,17.6-14.5c0.6-3,1.4-8.7,2.4-17.4c0.9-7.7-4.6-14.6-12.3-15.5
	c-0.5-0.1-1-0.1-1.4-0.1h-7.5l3.9-26c1.1-7.6-4.1-14.8-11.8-15.9c-0.1,0-0.3,0-0.4-0.1c-3.7-0.5-7.5-0.8-11.2-0.9h-2
	c-8.8,0.9-15.8,7.9-16.6,16.8c0,0,0,0.3,0,0.4l-3.8,25H88.9l3.9-25.6C94,12.3,88.7,5.1,81.1,4c-0.2,0-0.3,0-0.5-0.1
	C76.8,3.4,73,3.1,69.2,3L68.8,2.8z M75.3,132.8l6.1-39.9h10.5l-6,39.9C85.9,132.8,75.3,132.8,75.3,132.8z"/>
</svg>
