<svg id="Layer_1" data-name="Layer 1" xmlns="http://www.w3.org/2000/svg" viewBox="0 0 400 298.34"><defs><style>.cls-1{fill:#fff;}.cls-2{fill:none;stroke:#fff;stroke-linecap:round;stroke-miterlimit:10;stroke-width:24px;}.cls-3{fill:#ffebd9;}.cls-4{fill:#6f2729;}.cls-5{fill:#ed2424;}</style></defs><title>logo_final</title><path class="cls-1" d="M213.51,188.56a7.48,7.48,0,0,1-7.48-7.48,5.68,5.68,0,1,0-11.35,0,7.49,7.49,0,0,1-15,0,20.65,20.65,0,1,1,41.29,0A7.48,7.48,0,0,1,213.51,188.56Z" transform="translate(0 -51)"/><path class="cls-2" d="M215.86,166.38" transform="translate(0 -51)"/><path class="cls-2" d="M232,150.67" transform="translate(0 -51)"/><path class="cls-2" d="M109.56,107.66" transform="translate(0 -51)"/><path class="cls-2" d="M185.19,57.66" transform="translate(0 -51)"/><path class="cls-2" d="M277.87,101.89" transform="translate(0 -51)"/><path class="cls-1" d="M200.14,174.43a7.48,7.48,0,0,1-.94-14.91c11.06-1.41,13.37-4.1,13.6-4.41a5.26,5.26,0,0,0-.88-2.16c-2.2-3.58-9.31-4.84-19-3.37l-.62.07a23.73,23.73,0,0,0-6.86,2c-5,1.95-11.22,4.37-20.34,2.74-7.41-1.33-12.72-5.63-15-12.13-2.7-7.84-.09-17.48,3.88-21.92,6.7-7.47,15-10.62,31.62-12,16.07-1.34,41.48,2.33,59.32,13.56a5.72,5.72,0,0,0,7.38-1.21l.23-.27a6.84,6.84,0,0,0,1.76-5.48,7.08,7.08,0,0,0-3.6-4.67,107.56,107.56,0,0,0-68.1-14.79c-17.49,1.95-26.53,6.21-40.18,15-.35.23-.71.45-1.07.65A20.52,20.52,0,0,1,116,107.41a21,21,0,0,1-2.74-26l.14-.2c.78-1.17,20-28.6,81.07-30.16h.25c2.22,0,54.76.67,84.23,25.09a7.48,7.48,0,1,1-9.55,11.52C244.61,67.09,197.26,66,194.69,66c-15.25.41-37,2.9-54.56,12.44-9.58,5.21-13.73,10.33-14.33,11.11a6.17,6.17,0,0,0,1,7.51,5.55,5.55,0,0,0,7.11,1.09l.43-.26c15.05-9.7,26.39-15,46.63-17.31A122.37,122.37,0,0,1,258.43,97.4a21.16,21.16,0,0,1,5.69,32.45l-.22.27a20.66,20.66,0,0,1-26.95,4.4c-14.26-9-36-12.49-50.09-11.31-15.25,1.27-18.87,3.93-21.66,7-.74,1.07-1.83,4.94-.87,7.31.21.51.64,1.58,3.37,2.07,5,.89,8.21-.36,12.28-2a37.75,37.75,0,0,1,11-2.93c11.51-1.69,26.6-1.22,33.72,10.39,3.45,5.61,4,11.45,1.65,16.43-3.3,6.89-11.55,11.08-25.23,12.82A7.69,7.69,0,0,1,200.14,174.43Z" transform="translate(0 -51)"/><path class="cls-2" d="M195.36,185.69" transform="translate(0 -51)"/><path class="cls-2" d="M209.47,174.19" transform="translate(0 -51)"/><polygon class="cls-3" points="199.73 137.74 178.93 125.12 178.81 125.04 157.86 112.33 147.41 119.59 198.07 150.34 199.73 137.74"/><path class="cls-4" d="M200.54,206.49l-58.85-35.71,16.05-11.17,45.35,27.52Zm-47.41-36.07,42.48,25.78.76-5.85L158,167.05Z" transform="translate(0 -51)"/><polygon class="cls-3" points="195.78 148.95 195.72 148.91 149.77 121.03 142.88 116.85 139.08 123.1 143.53 125.8 194.34 156.64 194.42 156.69 198.76 159.32 202.55 153.06 195.78 148.95"/><path class="cls-4" d="M199.8,214.6l-65-39.45,7-11.59,65,39.45Zm-56.43-41.54,54.34,33,.56-.93-54.34-33Z" transform="translate(0 -51)"/><polygon class="cls-5" points="169.16 141.35 168.94 141.22 143.69 125.9 112.72 198.55 128.3 208 128.69 208.24 144.1 217.59 194.15 156.52 169.16 141.35"/><path class="cls-4" d="M144.8,272.67l-36-21.86,33.45-78.44,56.6,34.35Zm-28.15-24.38,26.76,16.24,46.05-56.21-44.31-26.88Z" transform="translate(0 -51)"/><polygon class="cls-3" points="155.87 163.46 155.47 163.22 133.47 149.87 124.27 171.45 143.51 183.13 143.73 183.26 162.77 194.81 177.54 176.61 155.87 163.46"/><path class="cls-4" d="M163.48,249.89l-43.14-26.17L132,196.34l50.2,30.46Zm-35.28-28.7,33.86,20.55,10.81-13.31-37.94-23Z" transform="translate(0 -51)"/><polygon class="cls-3" points="246.44 116.07 224.67 126.92 224.54 126.98 202.6 137.91 203.17 150.63 256.21 124.2 246.44 116.07"/><path class="cls-4" d="M200.27,206.56,199.39,187l47.48-23.66,15,12.49Zm5.54-15.76.26,5.9,44.48-22.16L246,170.77Z" transform="translate(0 -51)"/><polygon class="cls-3" points="253.81 125.4 253.74 125.43 205.64 149.4 198.43 152.99 201.69 159.54 206.34 157.22 259.55 130.71 259.63 130.67 264.17 128.41 260.9 121.86 253.81 125.4"/><path class="cls-4" d="M200.29,214.72l-6-12.13,68.06-33.91,6.05,12.14Zm2.32-9.33.48,1L260,178l-.49-1Z" transform="translate(0 -51)"/><polygon class="cls-5" points="233.18 143.85 232.96 143.96 206.52 157.13 251.41 222.11 267.72 213.98 268.13 213.78 284.27 205.74 259.34 130.82 233.18 143.85"/><path class="cls-4" d="M250.38,277.11,201.91,207l59.26-29.52,26.92,80.89Zm-39.25-67.79,41.31,59.79,28-14-22.94-68.94Z" transform="translate(0 -51)"/><polygon class="cls-3" points="244.78 166.89 244.36 167.09 221.33 178.57 234.67 197.87 254.81 187.84 255.03 187.72 274.97 177.79 267.47 155.58 244.78 166.89"/><path class="cls-4" d="M233.64,252.87l-16.92-24.48,52.56-26.19,9.52,28.17Zm-7.7-22.11,9.76,14.12,35.45-17.66L265.66,211Z" transform="translate(0 -51)"/><path class="cls-4" d="M42.09,346.18c-1.5-1.15-2.64-3.25-3.4-6.32a59.33,59.33,0,0,1-1.14-13.38q0-24.33,12.71-24.33c2.45,0,4.07.33,4.86,1a3.42,3.42,0,0,1,1.17,2.76,10.05,10.05,0,0,1-1,4.26A5.45,5.45,0,0,0,52,309.07q-3.18,0-5.08,3.66T45,325.91a55.35,55.35,0,0,0,.51,8.58,8.94,8.94,0,0,0,1.59,4.29A3.68,3.68,0,0,0,50,340a10.59,10.59,0,0,0,5-.95,9.18,9.18,0,0,1,.95,4.13,3.84,3.84,0,0,1-2.06,3.46,11,11,0,0,1-5.69,1.24A9.81,9.81,0,0,1,42.09,346.18Z" transform="translate(0 -51)"/><path class="cls-4" d="M62.45,346q-2.41-1.9-3.52-6.86a70.15,70.15,0,0,1-1.11-14.36,55.08,55.08,0,0,1,1.3-13.47q1.31-5,3.94-7.06A10.78,10.78,0,0,1,70,302.15a10.22,10.22,0,0,1,6.67,2c1.61,1.31,2.79,3.58,3.53,6.79a64.19,64.19,0,0,1,1.11,13.6,60.19,60.19,0,0,1-1.27,14q-1.27,5.08-3.84,7.24a10.4,10.4,0,0,1-6.9,2.16A10.75,10.75,0,0,1,62.45,346Zm9.6-7a14.11,14.11,0,0,0,1.14-4.93q.32-3.33.32-9.3,0-6.16-.22-9.28a11.85,11.85,0,0,0-1-4.58,2.67,2.67,0,0,0-4.83.16,15,15,0,0,0-1.2,5.25c-.24,2.41-.35,5.76-.35,10,0,3.61.09,6.4.28,8.39a11.84,11.84,0,0,0,1.08,4.42,2.58,2.58,0,0,0,2.38,1.43A2.61,2.61,0,0,0,72.05,339Z" transform="translate(0 -51)"/><path class="cls-4" d="M102.06,303.13a5.64,5.64,0,0,1,2.06-.28c1.14-.05,2.69-.07,4.64-.07V346a1.32,1.32,0,0,1-.32.92,1.23,1.23,0,0,1-1,.35H102l-6.73-17a106.71,106.71,0,0,1-3.81-14.11,146.36,146.36,0,0,1,.82,14.62V346a1.05,1.05,0,0,1-.32.92,5.46,5.46,0,0,1-2.06.28c-1.17.05-2.72.07-4.67.07V304.05a1.12,1.12,0,0,1,1.27-1.27h5.59l6.67,16.71A102.93,102.93,0,0,1,102.53,333a132.72,132.72,0,0,1-.82-14.1V304.05A1,1,0,0,1,102.06,303.13Z" transform="translate(0 -51)"/><path class="cls-4" d="M130.24,303.13a5.64,5.64,0,0,1,2.06-.28c1.15-.05,2.69-.07,4.64-.07V346a1.32,1.32,0,0,1-.32.92,1.23,1.23,0,0,1-1,.35h-5.46l-6.74-17a106.71,106.71,0,0,1-3.81-14.11,146.36,146.36,0,0,1,.82,14.62V346a1.08,1.08,0,0,1-.31.92,5.53,5.53,0,0,1-2.07.28c-1.16.05-2.72.07-4.67.07V304.05a1.12,1.12,0,0,1,1.27-1.27h5.59L127,319.49A105,105,0,0,1,130.71,333a132.72,132.72,0,0,1-.82-14.1V304.05A1,1,0,0,1,130.24,303.13Z" transform="translate(0 -51)"/><path class="cls-4" d="M148.67,341h9c0,1.69,0,3-.06,4.06a5,5,0,0,1-.29,1.88,1,1,0,0,1-.86.35H141.61V304.05a1.8,1.8,0,0,1,.26-.79,1,1,0,0,1,1-.48h15.25c0,1.61,0,2.92-.06,3.94a4.86,4.86,0,0,1-.32,1.94,1,1,0,0,1-.89.41h-8.19v10.87h7.75c0,1.56,0,2.87-.06,3.9a7,7,0,0,1-.29,2.07.8.8,0,0,1-.8.51h-6.6Z" transform="translate(0 -51)"/><path class="cls-4" d="M164.76,346.18c-1.5-1.15-2.64-3.25-3.4-6.32a59.33,59.33,0,0,1-1.14-13.38q0-24.33,12.7-24.33c2.46,0,4.08.33,4.86,1a3.4,3.4,0,0,1,1.18,2.76,9.92,9.92,0,0,1-1,4.26,5.4,5.4,0,0,0-3.3-1.08q-3.18,0-5.08,3.66t-1.91,13.18a55.35,55.35,0,0,0,.51,8.58,8.94,8.94,0,0,0,1.59,4.29,3.68,3.68,0,0,0,2.92,1.23,10.59,10.59,0,0,0,5-.95,9.18,9.18,0,0,1,1,4.13,3.83,3.83,0,0,1-2.07,3.46,11,11,0,0,1-5.68,1.24A9.81,9.81,0,0,1,164.76,346.18Z" transform="translate(0 -51)"/><path class="cls-4" d="M203.85,302.78v5.34a1.37,1.37,0,0,1-.28,1,1.57,1.57,0,0,1-1,.25h-6.8V346a1,1,0,0,1-.35.92,5.64,5.64,0,0,1-2.06.28c-1.15.05-2.69.07-4.64.07V309.39H181v-5.34a1.12,1.12,0,0,1,1.27-1.27Z" transform="translate(0 -51)"/><path class="cls-5" d="M224.41,302.78c0,1.61,0,2.9-.06,3.88a4.54,4.54,0,0,1-.29,1.78,1.08,1.08,0,0,1-.92.31h-8.2v11.19h7.75c0,1.56,0,2.87-.06,3.9a6.34,6.34,0,0,1-.29,2,.79.79,0,0,1-.79.47h-6.61v19.76c0,.77-.36,1.15-1.08,1.15h-6V304.05a1.77,1.77,0,0,1,.25-.79,1,1,0,0,1,1-.48Z" transform="translate(0 -51)"/><path class="cls-5" d="M230.7,346q-2.41-1.9-3.53-6.86a70.15,70.15,0,0,1-1.11-14.36,55.08,55.08,0,0,1,1.3-13.47q1.3-5,3.94-7.06a10.81,10.81,0,0,1,6.9-2.09,10.24,10.24,0,0,1,6.67,2c1.61,1.31,2.78,3.58,3.52,6.79a64.07,64.07,0,0,1,1.12,13.6,60.1,60.1,0,0,1-1.28,14q-1.26,5.08-3.84,7.24a10.36,10.36,0,0,1-6.89,2.16A10.73,10.73,0,0,1,230.7,346Zm9.59-7a14.3,14.3,0,0,0,1.15-4.93q.31-3.33.31-9.3,0-6.16-.22-9.28a11.85,11.85,0,0,0-1-4.58,2.66,2.66,0,0,0-4.82.16,14.76,14.76,0,0,0-1.21,5.25c-.23,2.41-.35,5.76-.35,10,0,3.61.09,6.4.29,8.39a11.84,11.84,0,0,0,1.08,4.42,2.56,2.56,0,0,0,2.38,1.43A2.6,2.6,0,0,0,240.29,339Z" transform="translate(0 -51)"/><path class="cls-5" d="M271.58,335a34.72,34.72,0,0,1,1.81,10.86,1.8,1.8,0,0,1-.22,1,1.45,1.45,0,0,1-1,.44,16.16,16.16,0,0,1-2.48.13c-1.14,0-2.52-.06-4.13-.19a43,43,0,0,0-1.33-10.77,22.4,22.4,0,0,0-2.8-6.45,8,8,0,0,1-1.14.06h-.51V346a1,1,0,0,1-.35.92,5.66,5.66,0,0,1-2.07.28c-1.14.05-2.69.07-4.64.07V304.05a1.8,1.8,0,0,1,.26-.79,1,1,0,0,1,1-.48h6a17.58,17.58,0,0,1,6.92,1.15,7.93,7.93,0,0,1,4.07,4,18.4,18.4,0,0,1,1.4,7.94q0,8.44-4.45,11.95A28,28,0,0,1,271.58,335ZM259.8,323.56h1.33a2.64,2.64,0,0,0,2.48-1.72q.83-1.71.83-6.35a14,14,0,0,0-.67-5,2.28,2.28,0,0,0-2.19-1.59H259.8Z" transform="translate(0 -51)"/><path class="cls-4" d="M281.34,346.18c-1.5-1.15-2.64-3.25-3.4-6.32a59.33,59.33,0,0,1-1.14-13.38q0-24.33,12.7-24.33c2.46,0,4.08.33,4.86,1a3.4,3.4,0,0,1,1.18,2.76,9.92,9.92,0,0,1-1,4.26,5.4,5.4,0,0,0-3.3-1.08q-3.18,0-5.08,3.66t-1.91,13.18a55.35,55.35,0,0,0,.51,8.58,8.94,8.94,0,0,0,1.59,4.29,3.68,3.68,0,0,0,2.92,1.23,10.59,10.59,0,0,0,5-.95,9.18,9.18,0,0,1,1,4.13,3.83,3.83,0,0,1-2.07,3.46,11,11,0,0,1-5.68,1.24A9.81,9.81,0,0,1,281.34,346.18Z" transform="translate(0 -51)"/><path class="cls-4" d="M302.45,346c-1.61-1.27-2.78-3.56-3.53-6.86a70.15,70.15,0,0,1-1.11-14.36,55,55,0,0,1,1.31-13.47c.86-3.31,2.18-5.66,3.94-7.06a10.76,10.76,0,0,1,6.89-2.09,10.22,10.22,0,0,1,6.67,2c1.61,1.31,2.79,3.58,3.53,6.79a64.19,64.19,0,0,1,1.11,13.6,60.75,60.75,0,0,1-1.27,14q-1.28,5.08-3.85,7.24a10.36,10.36,0,0,1-6.89,2.16A10.75,10.75,0,0,1,302.45,346Zm9.6-7a14.11,14.11,0,0,0,1.14-4.93q.31-3.33.32-9.3,0-6.16-.23-9.28a11.69,11.69,0,0,0-1-4.58,2.67,2.67,0,0,0-4.83.16,15,15,0,0,0-1.21,5.25c-.23,2.41-.35,5.76-.35,10,0,3.61.1,6.4.29,8.39a11.84,11.84,0,0,0,1.08,4.42,2.57,2.57,0,0,0,2.38,1.43A2.62,2.62,0,0,0,312.05,339Z" transform="translate(0 -51)"/><path class="cls-4" d="M341.77,302.78c0,1.61,0,2.9-.07,3.88a4.62,4.62,0,0,1-.28,1.78,1.09,1.09,0,0,1-.93.31H332.3v11.19h7.75c0,1.56,0,2.87-.06,3.9a6.65,6.65,0,0,1-.29,2,.79.79,0,0,1-.79.47H332.3v19.76c0,.77-.36,1.15-1.08,1.15h-6V304.05a1.77,1.77,0,0,1,.25-.79,1,1,0,0,1,1-.48Z" transform="translate(0 -51)"/><path class="cls-4" d="M360.57,302.78c0,1.61,0,2.9-.06,3.88a4.36,4.36,0,0,1-.29,1.78,1.07,1.07,0,0,1-.92.31h-8.19v11.19h7.75c0,1.56,0,2.87-.07,3.9a6.43,6.43,0,0,1-.28,2,.8.8,0,0,1-.8.47h-6.6v19.76c0,.77-.37,1.15-1.08,1.15h-6V304.05a1.8,1.8,0,0,1,.26-.79,1,1,0,0,1,1-.48Z" transform="translate(0 -51)"/><path class="cls-4" d="M371.41,341h9c0,1.69,0,3-.06,4.06a5,5,0,0,1-.29,1.88,1,1,0,0,1-.86.35H364.35V304.05a1.8,1.8,0,0,1,.26-.79,1,1,0,0,1,1-.48h15.24c0,1.61,0,2.92-.06,3.94a4.86,4.86,0,0,1-.32,1.94,1,1,0,0,1-.89.41h-8.19v10.87h7.75c0,1.56,0,2.87-.06,3.9a7,7,0,0,1-.29,2.07.8.8,0,0,1-.79.51h-6.61Z" transform="translate(0 -51)"/><path class="cls-4" d="M390.53,341h9c0,1.69,0,3-.06,4.06a5.13,5.13,0,0,1-.28,1.88,1,1,0,0,1-.86.35H383.48V304.05a1.9,1.9,0,0,1,.25-.79,1,1,0,0,1,1-.48H400c0,1.61,0,2.92-.06,3.94a5.05,5.05,0,0,1-.32,1.94,1,1,0,0,1-.89.41h-8.2v10.87h7.76c0,1.56,0,2.87-.07,3.9a7.13,7.13,0,0,1-.28,2.07.81.81,0,0,1-.8.51h-6.61Z" transform="translate(0 -51)"/><path class="cls-5" d="M19.21,347.84a17.92,17.92,0,0,1-2-.15A1.5,1.5,0,0,1,15.9,346l1.39-9.17L12,336.74l-1.31,8.63a2.55,2.55,0,0,1-2,2.34,5.13,5.13,0,0,1-.74,0,16.58,16.58,0,0,1-2-.15,1.43,1.43,0,0,1-1-.58,1.48,1.48,0,0,1-.29-1.13L6,336.66l-3,0a1.53,1.53,0,0,1-1.11-.51,1.5,1.5,0,0,1-.36-1.17,29.78,29.78,0,0,1,.56-3.72,2.23,2.23,0,0,1,2.17-1.82h.19l2.62,0L8.8,317.89l-3.61-.05a1.47,1.47,0,0,1-1.11-.51,1.49,1.49,0,0,1-.36-1.16,29.78,29.78,0,0,1,.56-3.72,2.22,2.22,0,0,1,2.17-1.82h.18l3.26.05,1-6.6c.38-2.08,1.69-2.37,2.24-2.4h.31a21.13,21.13,0,0,1,2.28.18,1.43,1.43,0,0,1,1,.58,1.48,1.48,0,0,1,.29,1.13l-1.09,7.2,5.3.07,1-6.66c.37-2.07,1.65-2.37,2.19-2.41h.33a20.06,20.06,0,0,1,2.23.18,1.47,1.47,0,0,1,1,.57,1.56,1.56,0,0,1,.29,1.14l-1.1,7.27,3.33,0a1.47,1.47,0,0,1,1.1.51,1.54,1.54,0,0,1,.37,1.16c-.22,1.81-.38,3-.5,3.59a2.24,2.24,0,0,1-2.22,1.95h-.2l-3,0-1.75,11.56,4,.05a1.53,1.53,0,0,1,1.11.51,1.5,1.5,0,0,1,.36,1.17c-.22,1.81-.38,3-.5,3.59A2.23,2.23,0,0,1,27.07,337h-.2l-3.61-.05L22,345.45c-.34,1.79-1.39,2.23-2,2.33A3.82,3.82,0,0,1,19.21,347.84Zm-.83-18.24L20.13,318,14.84,318l-1.75,11.56Z" transform="translate(0 -51)"/><path class="cls-5" d="M13.44,303.17a20.67,20.67,0,0,1,2.1.17l-1.35,8.9-3,0,1.19-7.89c.14-.73.42-1.11.85-1.13h.22m11.32.08c.44,0,1.12.06,2.06.16l-1.36,9-2.95,0,1.21-8c.13-.73.4-1.11.81-1.13h.23M6.45,312.13h.1l4.63.07-.64,4.21-5.33-.07a33.78,33.78,0,0,1,.52-3.52q.18-.69.72-.69m7.74.11,8.32.11-.64,4.22-8.32-.12.64-4.21m11.27.15,5.05.06q-.32,2.66-.48,3.48c-.1.49-.35.74-.75.74h-.12l-4.34-.05.64-4.22m-14.92,4,3,0L11.35,331l-3,0,2.21-14.55m11.33.16,2.95,0-2.21,14.54-2.94,0,2.2-14.55M4.24,330.9h.11l4,0-.63,4.22L3,335.12c.22-1.84.39-3,.52-3.52s.36-.7.72-.7m7.11.1,8.32.12L19,335.33l-8.32-.11.64-4.22m11.26.15,5.69.08c-.21,1.77-.37,2.93-.48,3.47s-.35.75-.75.75H27l-5-.07.64-4.22m-14.91,4,3,0-1.5,9.92q-.2,1-.81,1.08a3.34,3.34,0,0,1-.5,0A15.62,15.62,0,0,1,6,346.11L7.7,335.18m11.33.15,2.94,0-1.49,9.85c-.12.66-.38,1-.77,1.09a3.25,3.25,0,0,1-.5,0,17.64,17.64,0,0,1-1.83-.14L19,335.33m-5.59-35.16h-.39a4,4,0,0,0-3.63,3.59s0,.06,0,.09l-.81,5.3-1.9,0H6.45a3.72,3.72,0,0,0-3.63,2.94A34.78,34.78,0,0,0,2.23,316a3,3,0,0,0,2.94,3.35l1.89,0-1.3,8.56-1.27,0H4.24a3.72,3.72,0,0,0-3.62,3,31,31,0,0,0-.6,3.92A3,3,0,0,0,3,338.12l1.25,0-1.14,7.52a3,3,0,0,0,2.62,3.43,19.11,19.11,0,0,0,2.21.16,6.85,6.85,0,0,0,1-.06,4,4,0,0,0,3.29-3.49.36.36,0,0,0,0-.11l1.11-7.33,2.27,0-1.13,7.46A3,3,0,0,0,17,349.18a19,19,0,0,0,2.18.16,6.08,6.08,0,0,0,1-.08,4,4,0,0,0,3.21-3.48s0-.07,0-.11l1.1-7.26,2.25,0h.27a3.77,3.77,0,0,0,3.69-3.15c.13-.65.3-1.86.52-3.72a3,3,0,0,0-.73-2.33,3,3,0,0,0-2.21-1l-2.25,0,1.3-8.56,1.62,0h.27A3.76,3.76,0,0,0,33,316.53c.13-.65.3-1.87.52-3.73a3,3,0,0,0-2.94-3.35l-1.61,0,.84-5.57a3,3,0,0,0-2.61-3.42,20.89,20.89,0,0,0-2.41-.19h-.42a4,4,0,0,0-3.57,3.6s0,.06,0,.08l-.81,5.37-2.27,0,.84-5.49a3,3,0,0,0-2.62-3.43,21.45,21.45,0,0,0-2.45-.19Zm1.39,27.88,1.3-8.56,2.26,0-1.29,8.56-2.27,0Z" transform="translate(0 -51)"/></svg>